<svg width="1048" height="124" viewBox="0 0 1048 124" fill="none" xmlns="http://www.w3.org/2000/svg">
<rect width="1048" height="124" rx="2" fill="url(#paint0_linear_2_2421)"/>
<path d="M57.464 41.128C56.84 41.128 56.344 41.28 55.976 41.584C55.624 41.872 55.448 42.264 55.448 42.76C55.448 43.24 55.664 43.624 56.096 43.912C56.544 44.2 57.56 44.544 59.144 44.944C60.744 45.328 61.984 45.912 62.864 46.696C63.744 47.48 64.184 48.624 64.184 50.128C64.184 51.632 63.616 52.856 62.48 53.8C61.36 54.728 59.88 55.192 58.04 55.192C55.384 55.192 52.992 54.208 50.864 52.24L53.096 49.504C54.904 51.088 56.576 51.88 58.112 51.88C58.8 51.88 59.336 51.736 59.72 51.448C60.12 51.144 60.32 50.744 60.32 50.248C60.32 49.736 60.112 49.336 59.696 49.048C59.28 48.744 58.456 48.44 57.224 48.136C55.272 47.672 53.84 47.072 52.928 46.336C52.032 45.584 51.584 44.416 51.584 42.832C51.584 41.232 52.152 40 53.288 39.136C54.44 38.272 55.872 37.84 57.584 37.84C58.704 37.84 59.824 38.032 60.944 38.416C62.064 38.8 63.04 39.344 63.872 40.048L61.976 42.784C60.52 41.68 59.016 41.128 57.464 41.128ZM75.2726 49.048V42.088H78.8966V55H75.2726V53.296C74.3766 54.56 73.2166 55.192 71.7926 55.192C70.3846 55.192 69.2006 54.752 68.2406 53.872C67.2806 52.976 66.8006 51.656 66.8006 49.912V42.088H70.4246V49.12C70.4246 51.104 71.1526 52.096 72.6086 52.096C73.3286 52.096 73.9526 51.84 74.4806 51.328C75.0086 50.8 75.2726 50.04 75.2726 49.048ZM89.8362 41.872C91.4042 41.872 92.7722 42.488 93.9402 43.72C95.1082 44.936 95.6922 46.504 95.6922 48.424C95.6922 50.344 95.0922 51.952 93.8922 53.248C92.6922 54.544 91.3242 55.192 89.7882 55.192C88.2682 55.192 87.0042 54.56 85.9962 53.296V55H82.3962V37.192H85.9962V43.528C86.9882 42.424 88.2682 41.872 89.8362 41.872ZM85.9482 48.568C85.9482 49.608 86.2362 50.464 86.8122 51.136C87.4042 51.792 88.1162 52.12 88.9482 52.12C89.7802 52.12 90.5082 51.792 91.1322 51.136C91.7562 50.464 92.0682 49.608 92.0682 48.568C92.0682 47.528 91.7642 46.656 91.1562 45.952C90.5482 45.248 89.8202 44.896 88.9722 44.896C88.1242 44.896 87.4042 45.248 86.8122 45.952C86.2362 46.64 85.9482 47.512 85.9482 48.568ZM108.083 50.992C108.083 52.256 107.611 53.272 106.667 54.04C105.739 54.808 104.555 55.192 103.115 55.192C102.155 55.192 101.155 55.024 100.115 54.688C99.0754 54.336 98.1394 53.824 97.3074 53.152L98.8914 50.896C100.235 51.936 101.667 52.456 103.187 52.456C103.651 52.456 104.019 52.368 104.291 52.192C104.563 52 104.699 51.752 104.699 51.448C104.699 51.144 104.507 50.864 104.123 50.608C103.755 50.352 103.211 50.112 102.491 49.888C101.787 49.664 101.243 49.472 100.859 49.312C100.491 49.152 100.067 48.92 99.5874 48.616C98.6114 48.008 98.1234 47.112 98.1234 45.928C98.1234 44.728 98.6034 43.752 99.5634 43C100.523 42.248 101.763 41.872 103.283 41.872C104.803 41.872 106.323 42.384 107.843 43.408L106.499 45.808C105.379 45.04 104.259 44.656 103.139 44.656C102.035 44.656 101.483 44.96 101.483 45.568C101.483 45.904 101.659 46.168 102.011 46.36C102.363 46.552 102.947 46.776 103.763 47.032C104.579 47.288 105.155 47.488 105.491 47.632C105.843 47.76 106.259 47.968 106.739 48.256C107.635 48.8 108.083 49.712 108.083 50.992ZM117.124 52C118.324 52 119.404 51.4 120.364 50.2L122.5 52.6C120.836 54.328 119.036 55.192 117.1 55.192C115.164 55.192 113.524 54.584 112.18 53.368C110.852 52.136 110.188 50.536 110.188 48.568C110.188 46.584 110.86 44.976 112.204 43.744C113.564 42.496 115.172 41.872 117.028 41.872C117.956 41.872 118.892 42.064 119.836 42.448C120.796 42.832 121.636 43.4 122.356 44.152L120.484 46.6C120.068 46.104 119.556 45.72 118.948 45.448C118.356 45.176 117.764 45.04 117.172 45.04C116.228 45.04 115.412 45.352 114.724 45.976C114.052 46.584 113.716 47.44 113.716 48.544C113.716 49.632 114.052 50.48 114.724 51.088C115.412 51.696 116.212 52 117.124 52ZM131.793 45.256C130.721 45.256 129.921 45.64 129.393 46.408C128.865 47.16 128.601 48.16 128.601 49.408V55H125.001V42.088H128.601V43.792C129.065 43.264 129.641 42.816 130.329 42.448C131.033 42.08 131.745 41.888 132.465 41.872L132.489 45.256H131.793ZM138.568 55H134.968V42.088H138.568V55ZM135.256 40.456C134.856 40.04 134.656 39.536 134.656 38.944C134.656 38.352 134.856 37.856 135.256 37.456C135.672 37.04 136.176 36.832 136.768 36.832C137.36 36.832 137.856 37.04 138.256 37.456C138.672 37.856 138.88 38.352 138.88 38.944C138.88 39.536 138.672 40.04 138.256 40.456C137.856 40.856 137.36 41.056 136.768 41.056C136.176 41.056 135.672 40.856 135.256 40.456ZM149.516 41.872C151.084 41.872 152.452 42.488 153.62 43.72C154.788 44.936 155.372 46.504 155.372 48.424C155.372 50.344 154.772 51.952 153.572 53.248C152.372 54.544 151.004 55.192 149.468 55.192C147.948 55.192 146.684 54.56 145.676 53.296V55H142.076V37.192H145.676V43.528C146.668 42.424 147.948 41.872 149.516 41.872ZM145.628 48.568C145.628 49.608 145.916 50.464 146.492 51.136C147.084 51.792 147.796 52.12 148.628 52.12C149.46 52.12 150.188 51.792 150.812 51.136C151.436 50.464 151.748 49.608 151.748 48.568C151.748 47.528 151.444 46.656 150.836 45.952C150.228 45.248 149.5 44.896 148.652 44.896C147.804 44.896 147.084 45.248 146.492 45.952C145.916 46.64 145.628 47.512 145.628 48.568ZM169.344 53.128C167.888 54.504 166.176 55.192 164.208 55.192C162.256 55.192 160.64 54.592 159.36 53.392C158.08 52.176 157.44 50.552 157.44 48.52C157.44 46.488 158.088 44.872 159.384 43.672C160.696 42.472 162.24 41.872 164.016 41.872C165.792 41.872 167.296 42.408 168.528 43.48C169.776 44.552 170.4 46.024 170.4 47.896V49.816H160.992C161.104 50.52 161.472 51.096 162.096 51.544C162.72 51.992 163.424 52.216 164.208 52.216C165.472 52.216 166.512 51.792 167.328 50.944L169.344 53.128ZM166.752 47.248C166.672 46.48 166.384 45.888 165.888 45.472C165.392 45.056 164.784 44.848 164.064 44.848C163.36 44.848 162.712 45.064 162.12 45.496C161.528 45.928 161.184 46.512 161.088 47.248H166.752ZM191.404 38.224V41.512H183.628V45.136H191.02V48.424H183.628V55H179.884V38.224H191.404ZM196.942 48.544C196.942 49.6 197.238 50.464 197.83 51.136C198.438 51.792 199.206 52.12 200.134 52.12C201.078 52.12 201.846 51.792 202.438 51.136C203.046 50.464 203.35 49.6 203.35 48.544C203.35 47.488 203.046 46.624 202.438 45.952C201.846 45.28 201.078 44.944 200.134 44.944C199.206 44.944 198.438 45.28 197.83 45.952C197.238 46.624 196.942 47.488 196.942 48.544ZM206.974 48.544C206.974 50.416 206.326 51.992 205.03 53.272C203.734 54.552 202.102 55.192 200.134 55.192C198.182 55.192 196.558 54.552 195.262 53.272C193.966 51.992 193.318 50.416 193.318 48.544C193.318 46.672 193.966 45.096 195.262 43.816C196.558 42.52 198.182 41.872 200.134 41.872C202.102 41.872 203.734 42.52 205.03 43.816C206.326 45.096 206.974 46.672 206.974 48.544ZM216.54 45.256C215.468 45.256 214.668 45.64 214.14 46.408C213.612 47.16 213.348 48.16 213.348 49.408V55H209.748V42.088H213.348V43.792C213.812 43.264 214.388 42.816 215.076 42.448C215.78 42.08 216.492 41.888 217.212 41.872L217.236 45.256H216.54ZM226.503 55V38.224H230.247V51.664H237.399V55H226.503ZM250.852 55H247.468V53.44C246.54 54.608 245.388 55.192 244.012 55.192C242.652 55.192 241.508 54.8 240.58 54.016C239.652 53.216 239.188 52.16 239.188 50.848C239.188 49.52 239.668 48.528 240.628 47.872C241.588 47.216 242.9 46.888 244.564 46.888H247.252V46.816C247.252 45.44 246.524 44.752 245.068 44.752C244.444 44.752 243.78 44.88 243.076 45.136C242.388 45.376 241.804 45.68 241.324 46.048L239.716 43.72C241.412 42.488 243.348 41.872 245.524 41.872C247.092 41.872 248.372 42.264 249.364 43.048C250.356 43.832 250.852 45.072 250.852 46.768V55ZM247.228 50.08V49.456H244.972C243.532 49.456 242.812 49.904 242.812 50.8C242.812 51.264 242.98 51.624 243.316 51.88C243.668 52.12 244.164 52.24 244.804 52.24C245.444 52.24 246.004 52.048 246.484 51.664C246.98 51.264 247.228 50.736 247.228 50.08ZM258.389 44.68V50.464C258.389 50.96 258.517 51.352 258.773 51.64C259.029 51.912 259.333 52.048 259.685 52.048C260.357 52.048 260.925 51.744 261.389 51.136L262.733 53.656C261.613 54.68 260.429 55.192 259.181 55.192C257.949 55.192 256.901 54.784 256.037 53.968C255.189 53.152 254.765 52.04 254.765 50.632V44.68H253.253V42.088H254.765V38.224H258.389V42.088H261.509V44.68H258.389ZM275.947 53.128C274.491 54.504 272.779 55.192 270.811 55.192C268.859 55.192 267.243 54.592 265.963 53.392C264.683 52.176 264.043 50.552 264.043 48.52C264.043 46.488 264.691 44.872 265.987 43.672C267.299 42.472 268.843 41.872 270.619 41.872C272.395 41.872 273.899 42.408 275.131 43.48C276.379 44.552 277.003 46.024 277.003 47.896V49.816H267.595C267.707 50.52 268.075 51.096 268.699 51.544C269.323 51.992 270.027 52.216 270.811 52.216C272.075 52.216 273.115 51.792 273.931 50.944L275.947 53.128ZM273.355 47.248C273.275 46.48 272.987 45.888 272.491 45.472C271.995 45.056 271.387 44.848 270.667 44.848C269.963 44.848 269.315 45.064 268.723 45.496C268.131 45.928 267.787 46.512 267.691 47.248H273.355ZM289.419 50.992C289.419 52.256 288.947 53.272 288.003 54.04C287.075 54.808 285.891 55.192 284.451 55.192C283.491 55.192 282.491 55.024 281.451 54.688C280.411 54.336 279.475 53.824 278.643 53.152L280.227 50.896C281.571 51.936 283.003 52.456 284.523 52.456C284.987 52.456 285.355 52.368 285.627 52.192C285.899 52 286.035 51.752 286.035 51.448C286.035 51.144 285.843 50.864 285.459 50.608C285.091 50.352 284.547 50.112 283.827 49.888C283.123 49.664 282.579 49.472 282.195 49.312C281.827 49.152 281.403 48.92 280.923 48.616C279.947 48.008 279.459 47.112 279.459 45.928C279.459 44.728 279.939 43.752 280.899 43C281.859 42.248 283.099 41.872 284.619 41.872C286.139 41.872 287.659 42.384 289.179 43.408L287.835 45.808C286.715 45.04 285.595 44.656 284.475 44.656C283.371 44.656 282.819 44.96 282.819 45.568C282.819 45.904 282.995 46.168 283.347 46.36C283.699 46.552 284.283 46.776 285.099 47.032C285.915 47.288 286.491 47.488 286.827 47.632C287.179 47.76 287.595 47.968 288.075 48.256C288.971 48.8 289.419 49.712 289.419 50.992ZM296.47 44.68V50.464C296.47 50.96 296.598 51.352 296.854 51.64C297.11 51.912 297.414 52.048 297.766 52.048C298.438 52.048 299.006 51.744 299.47 51.136L300.814 53.656C299.694 54.68 298.51 55.192 297.262 55.192C296.03 55.192 294.982 54.784 294.118 53.968C293.27 53.152 292.846 52.04 292.846 50.632V44.68H291.334V42.088H292.846V38.224H296.47V42.088H299.59V44.68H296.47ZM63.8 70.224H67.544V87H63.8L55.808 76.488V87H52.064V70.224H55.568L63.8 81.024V70.224ZM82.6052 85.128C81.1492 86.504 79.4372 87.192 77.4692 87.192C75.5172 87.192 73.9012 86.592 72.6212 85.392C71.3412 84.176 70.7012 82.552 70.7012 80.52C70.7012 78.488 71.3492 76.872 72.6452 75.672C73.9572 74.472 75.5012 73.872 77.2772 73.872C79.0532 73.872 80.5572 74.408 81.7892 75.48C83.0372 76.552 83.6612 78.024 83.6612 79.896V81.816H74.2532C74.3652 82.52 74.7332 83.096 75.3572 83.544C75.9812 83.992 76.6852 84.216 77.4692 84.216C78.7332 84.216 79.7732 83.792 80.5892 82.944L82.6052 85.128ZM80.0132 79.248C79.9332 78.48 79.6452 77.888 79.1492 77.472C78.6532 77.056 78.0452 76.848 77.3252 76.848C76.6212 76.848 75.9732 77.064 75.3812 77.496C74.7892 77.928 74.4452 78.512 74.3492 79.248H80.0132ZM92.9599 87H89.2399L84.8479 74.088H88.5679L91.0879 81.888L93.6079 74.088H97.0879L99.6079 81.888L102.128 74.088H105.872L101.48 87H97.7359L95.3599 79.968L92.9599 87ZM117.529 82.992C117.529 84.256 117.057 85.272 116.113 86.04C115.185 86.808 114.001 87.192 112.561 87.192C111.601 87.192 110.601 87.024 109.561 86.688C108.521 86.336 107.585 85.824 106.753 85.152L108.337 82.896C109.681 83.936 111.113 84.456 112.633 84.456C113.097 84.456 113.465 84.368 113.737 84.192C114.009 84 114.145 83.752 114.145 83.448C114.145 83.144 113.953 82.864 113.569 82.608C113.201 82.352 112.657 82.112 111.937 81.888C111.233 81.664 110.689 81.472 110.305 81.312C109.937 81.152 109.513 80.92 109.033 80.616C108.057 80.008 107.569 79.112 107.569 77.928C107.569 76.728 108.049 75.752 109.009 75C109.969 74.248 111.209 73.872 112.729 73.872C114.249 73.872 115.769 74.384 117.289 75.408L115.945 77.808C114.825 77.04 113.705 76.656 112.585 76.656C111.481 76.656 110.929 76.96 110.929 77.568C110.929 77.904 111.105 78.168 111.457 78.36C111.809 78.552 112.393 78.776 113.209 79.032C114.025 79.288 114.601 79.488 114.937 79.632C115.289 79.76 115.705 79.968 116.185 80.256C117.081 80.8 117.529 81.712 117.529 82.992ZM123.977 87H120.377V69.192H123.977V87ZM138.669 85.128C137.213 86.504 135.501 87.192 133.533 87.192C131.581 87.192 129.965 86.592 128.685 85.392C127.405 84.176 126.765 82.552 126.765 80.52C126.765 78.488 127.413 76.872 128.709 75.672C130.021 74.472 131.565 73.872 133.341 73.872C135.117 73.872 136.621 74.408 137.853 75.48C139.101 76.552 139.725 78.024 139.725 79.896V81.816H130.317C130.429 82.52 130.797 83.096 131.421 83.544C132.045 83.992 132.749 84.216 133.533 84.216C134.797 84.216 135.837 83.792 136.653 82.944L138.669 85.128ZM136.077 79.248C135.997 78.48 135.709 77.888 135.213 77.472C134.717 77.056 134.109 76.848 133.389 76.848C132.685 76.848 132.037 77.064 131.445 77.496C130.853 77.928 130.509 78.512 130.413 79.248H136.077ZM146.577 76.68V82.464C146.577 82.96 146.705 83.352 146.961 83.64C147.217 83.912 147.521 84.048 147.873 84.048C148.545 84.048 149.113 83.744 149.577 83.136L150.921 85.656C149.801 86.68 148.617 87.192 147.369 87.192C146.137 87.192 145.089 86.784 144.225 85.968C143.377 85.152 142.953 84.04 142.953 82.632V76.68H141.441V74.088H142.953V70.224H146.577V74.088H149.697V76.68H146.577ZM157.247 76.68V82.464C157.247 82.96 157.375 83.352 157.631 83.64C157.887 83.912 158.191 84.048 158.543 84.048C159.215 84.048 159.783 83.744 160.247 83.136L161.591 85.656C160.471 86.68 159.287 87.192 158.039 87.192C156.807 87.192 155.759 86.784 154.895 85.968C154.047 85.152 153.623 84.04 153.623 82.632V76.68H152.111V74.088H153.623V70.224H157.247V74.088H160.367V76.68H157.247ZM174.805 85.128C173.349 86.504 171.637 87.192 169.669 87.192C167.717 87.192 166.101 86.592 164.821 85.392C163.541 84.176 162.901 82.552 162.901 80.52C162.901 78.488 163.549 76.872 164.845 75.672C166.157 74.472 167.701 73.872 169.477 73.872C171.253 73.872 172.757 74.408 173.989 75.48C175.237 76.552 175.861 78.024 175.861 79.896V81.816H166.453C166.565 82.52 166.933 83.096 167.557 83.544C168.181 83.992 168.885 84.216 169.669 84.216C170.933 84.216 171.973 83.792 172.789 82.944L174.805 85.128ZM172.213 79.248C172.133 78.48 171.845 77.888 171.349 77.472C170.853 77.056 170.245 76.848 169.525 76.848C168.821 76.848 168.173 77.064 167.581 77.496C166.989 77.928 166.645 78.512 166.549 79.248H172.213ZM185.349 77.256C184.277 77.256 183.477 77.64 182.949 78.408C182.421 79.16 182.157 80.16 182.157 81.408V87H178.557V74.088H182.157V75.792C182.621 75.264 183.197 74.816 183.885 74.448C184.589 74.08 185.301 73.888 186.021 73.872L186.045 77.256H185.349Z" fill="white"/>
<rect x="548.5" y="33.5" width="449" height="57" rx="4.5" fill="#F9F9F9"/>
<path d="M573.208 67H571.528V63.136L567.888 57.214H569.694L572.368 61.666L575.042 57.214H576.848L573.208 63.136V67ZM578.972 65.04C579.42 65.488 579.985 65.712 580.666 65.712C581.348 65.712 581.908 65.488 582.346 65.04C582.794 64.5827 583.018 63.9947 583.018 63.276C583.018 62.5573 582.794 61.974 582.346 61.526C581.908 61.0687 581.348 60.84 580.666 60.84C579.985 60.84 579.42 61.0687 578.972 61.526C578.534 61.974 578.314 62.5573 578.314 63.276C578.314 63.9947 578.534 64.5827 578.972 65.04ZM583.466 66.006C582.72 66.7433 581.786 67.112 580.666 67.112C579.546 67.112 578.613 66.7433 577.866 66.006C577.12 65.2593 576.746 64.3493 576.746 63.276C576.746 62.2027 577.12 61.2973 577.866 60.56C578.613 59.8133 579.546 59.44 580.666 59.44C581.786 59.44 582.72 59.8133 583.466 60.56C584.213 61.2973 584.586 62.2027 584.586 63.276C584.586 64.3493 584.213 65.2593 583.466 66.006ZM591.777 63.584V59.552H593.345V67H591.777V65.642C591.525 66.0993 591.175 66.4587 590.727 66.72C590.288 66.9813 589.812 67.112 589.299 67.112C588.459 67.112 587.778 66.8553 587.255 66.342C586.742 65.8287 586.485 65.0867 586.485 64.116V59.552H588.053V63.64C588.053 65.012 588.622 65.698 589.761 65.698C590.302 65.698 590.774 65.5207 591.175 65.166C591.576 64.802 591.777 64.2747 591.777 63.584ZM599.726 61.022C598.951 61.022 598.368 61.274 597.976 61.778C597.584 62.282 597.388 62.9587 597.388 63.808V67H595.82V59.552H597.388V61.05C597.64 60.5833 597.981 60.2007 598.41 59.902C598.849 59.6033 599.311 59.4493 599.796 59.44L599.81 61.022C599.782 61.022 599.754 61.022 599.726 61.022ZM612.724 57.214V58.768H607.502V61.358H612.192V62.828H607.502V65.446H612.892V67H605.85V57.214H612.724ZM616.554 62.968V67H614.986V59.552H616.554V60.91C616.778 60.4527 617.114 60.0933 617.562 59.832C618.02 59.5707 618.51 59.44 619.032 59.44C620.208 59.44 621.006 59.9253 621.426 60.896C622.164 59.9253 623.083 59.44 624.184 59.44C625.024 59.44 625.701 59.6967 626.214 60.21C626.737 60.7233 626.998 61.4653 626.998 62.436V67H625.43V62.912C625.43 61.54 624.861 60.854 623.722 60.854C623.19 60.854 622.724 61.0267 622.322 61.372C621.93 61.708 621.725 62.2027 621.706 62.856V67H620.138V62.912C620.138 62.2027 620.012 61.6847 619.76 61.358C619.508 61.022 619.112 60.854 618.57 60.854C618.029 60.854 617.558 61.036 617.156 61.4C616.755 61.7547 616.554 62.2773 616.554 62.968ZM635.412 67H633.984V66.006C633.368 66.7433 632.542 67.112 631.506 67.112C630.731 67.112 630.087 66.8927 629.574 66.454C629.07 66.0153 628.818 65.432 628.818 64.704C628.818 63.9667 629.088 63.416 629.63 63.052C630.171 62.688 630.904 62.506 631.828 62.506H633.858V62.226C633.858 61.2367 633.307 60.742 632.206 60.742C631.515 60.742 630.796 60.994 630.05 61.498L629.35 60.518C630.255 59.7993 631.282 59.44 632.43 59.44C633.307 59.44 634.021 59.664 634.572 60.112C635.132 60.5507 635.412 61.246 635.412 62.198V67ZM633.844 64.228V63.598H632.08C630.95 63.598 630.386 63.9527 630.386 64.662C630.386 65.026 630.526 65.306 630.806 65.502C631.086 65.6887 631.473 65.782 631.968 65.782C632.472 65.782 632.91 65.642 633.284 65.362C633.657 65.082 633.844 64.704 633.844 64.228ZM639.363 67H637.795V59.552H639.363V67ZM637.893 58.068C637.697 57.872 637.599 57.6387 637.599 57.368C637.599 57.0973 637.697 56.864 637.893 56.668C638.089 56.472 638.322 56.374 638.593 56.374C638.863 56.374 639.097 56.472 639.293 56.668C639.489 56.864 639.587 57.0973 639.587 57.368C639.587 57.6387 639.489 57.872 639.293 58.068C639.097 58.264 638.863 58.362 638.593 58.362C638.322 58.362 638.089 58.264 637.893 58.068ZM643.404 67H641.836V56.612H643.404V67Z" fill="#737373"/>
<rect x="548.5" y="33.5" width="449" height="57" rx="4.5" stroke="#E6E6E6"/>
<path d="M881.5 33.5H993C995.485 33.5 997.5 35.5147 997.5 38V86C997.5 88.4853 995.485 90.5 993 90.5H881.5V33.5Z" fill="#23A6F0"/>
<path d="M908.265 67.084C910.771 67.084 911.919 65.852 911.919 64.41C911.919 60.84 905.885 62.464 905.885 59.776C905.885 58.796 906.683 57.998 908.475 57.998C909.343 57.998 910.323 58.264 911.163 58.81L911.513 57.984C910.729 57.438 909.581 57.116 908.475 57.116C905.983 57.116 904.863 58.362 904.863 59.804C904.863 63.43 910.897 61.778 910.897 64.466C910.897 65.432 910.099 66.202 908.265 66.202C906.977 66.202 905.731 65.698 905.031 65.012L904.625 65.81C905.353 66.566 906.795 67.084 908.265 67.084ZM919.808 59.636V63.5C919.808 65.18 918.842 66.174 917.302 66.174C915.902 66.174 915.09 65.376 915.09 63.808V59.636H914.096V63.906C914.096 66.02 915.328 67.07 917.204 67.07C918.38 67.07 919.332 66.552 919.85 65.656V67H920.802V59.636H919.808ZM927.58 59.58C926.404 59.58 925.396 60.084 924.78 61.036V56.612H923.786V67H924.738V65.544C925.34 66.538 926.362 67.07 927.58 67.07C929.68 67.07 931.248 65.544 931.248 63.318C931.248 61.092 929.68 59.58 927.58 59.58ZM927.51 66.188C925.942 66.188 924.766 65.04 924.766 63.318C924.766 61.596 925.942 60.448 927.51 60.448C929.064 60.448 930.254 61.596 930.254 63.318C930.254 65.04 929.064 66.188 927.51 66.188ZM935.448 67.07C937.366 67.07 938.486 66.244 938.486 64.97C938.486 62.142 933.712 63.64 933.712 61.652C933.712 60.952 934.3 60.434 935.63 60.434C936.386 60.434 937.156 60.616 937.8 61.064L938.234 60.266C937.618 59.846 936.582 59.58 935.63 59.58C933.754 59.58 932.718 60.476 932.718 61.68C932.718 64.592 937.492 63.08 937.492 64.998C937.492 65.726 936.918 66.202 935.518 66.202C934.482 66.202 933.488 65.838 932.9 65.376L932.452 66.16C933.054 66.678 934.23 67.07 935.448 67.07ZM943.576 67.07C944.822 67.07 945.872 66.566 946.46 65.614L945.718 65.11C945.214 65.852 944.43 66.188 943.576 66.188C941.966 66.188 940.79 65.054 940.79 63.318C940.79 61.596 941.966 60.448 943.576 60.448C944.43 60.448 945.214 60.798 945.718 61.54L946.46 61.036C945.872 60.07 944.822 59.58 943.576 59.58C941.378 59.58 939.782 61.12 939.782 63.318C939.782 65.516 941.378 67.07 943.576 67.07ZM949.564 61.078V59.636H948.612V67H949.606V63.248C949.606 61.512 950.544 60.532 952.084 60.532C952.154 60.532 952.238 60.546 952.322 60.546V59.58C950.964 59.58 950.026 60.098 949.564 61.078ZM954.826 58.026C955.246 58.026 955.554 57.704 955.554 57.298C955.554 56.92 955.232 56.612 954.826 56.612C954.42 56.612 954.098 56.934 954.098 57.312C954.098 57.704 954.42 58.026 954.826 58.026ZM954.322 67H955.316V59.636H954.322V67ZM962.076 59.58C960.9 59.58 959.892 60.084 959.276 61.036V56.612H958.282V67H959.234V65.544C959.836 66.538 960.858 67.07 962.076 67.07C964.176 67.07 965.744 65.544 965.744 63.318C965.744 61.092 964.176 59.58 962.076 59.58ZM962.006 66.188C960.438 66.188 959.262 65.04 959.262 63.318C959.262 61.596 960.438 60.448 962.006 60.448C963.56 60.448 964.75 61.596 964.75 63.318C964.75 65.04 963.56 66.188 962.006 66.188ZM974.396 63.318C974.396 61.106 972.898 59.58 970.826 59.58C968.754 59.58 967.228 61.134 967.228 63.318C967.228 65.502 968.796 67.07 971.092 67.07C972.254 67.07 973.276 66.65 973.934 65.866L973.374 65.222C972.814 65.866 972.016 66.188 971.12 66.188C969.51 66.188 968.334 65.166 968.222 63.626H974.382C974.382 63.514 974.396 63.402 974.396 63.318ZM970.826 60.434C972.268 60.434 973.318 61.442 973.444 62.884H968.222C968.348 61.442 969.398 60.434 970.826 60.434Z" fill="white"/>
<path d="M881.5 33.5H993C995.485 33.5 997.5 35.5147 997.5 38V86C997.5 88.4853 995.485 90.5 993 90.5H881.5V33.5Z" stroke="#E6E6E6"/>
<defs>
<linearGradient id="paint0_linear_2_2421" x1="1058.92" y1="62.0001" x2="2.81481e-07" y2="62.0001" gradientUnits="userSpaceOnUse">
<stop stop-color="#D71489"/>
<stop offset="1" stop-color="#004788"/>
</linearGradient>
</defs>
</svg>
